# Blender v2.80 (sub 75) OBJ File: 'WeaponModels.blend'
# www.blender.org
mtllib Sword.mtl
o Sword_Circle
v -0.033818 0.065824 -0.039189
v -0.009744 0.065498 -0.028740
v -0.000112 0.065176 -0.004327
v -0.010564 0.065048 0.019748
v -0.034977 0.065188 0.029383
v -0.059052 0.065515 0.018933
v -0.068684 0.065836 -0.005480
v -0.058232 0.065964 -0.029555
v -0.034045 0.024581 -0.049299
v -0.003146 0.024162 -0.035887
v 0.009217 0.023749 -0.004553
v -0.004198 0.023585 0.026347
v -0.035533 0.023765 0.038713
v -0.066432 0.024184 0.025301
v -0.078795 0.024597 -0.006033
v -0.065380 0.024761 -0.036933
v -0.001015 0.065495 -0.037179
v -0.033613 0.065937 -0.051329
v 0.012028 0.065059 -0.004123
v -0.002125 0.064886 0.028477
v -0.035183 0.065076 0.041523
v -0.067781 0.065518 0.027373
v -0.080824 0.065953 -0.005684
v -0.066671 0.066127 -0.038283
v -0.043130 0.012853 -0.026263
v -0.025968 0.012688 -0.025975
v -0.034899 0.012578 -0.005403
v -0.014037 0.012458 -0.013635
v -0.014328 0.012299 0.003527
v -0.026668 0.012303 0.015458
v -0.043830 0.012469 0.015170
v -0.055760 0.012698 0.002830
v -0.055470 0.012857 -0.014332
v -0.031364 1.213499 -0.040248
v -0.031829 1.256190 -0.002385
v -0.032247 1.213147 0.035621
v 0.025708 0.361433 -0.057079
v -0.030327 0.342269 -0.111315
v 0.041579 0.359855 -0.000793
v 0.024189 0.361648 0.054935
v -0.033158 0.341876 0.106882
v -0.089045 0.361695 0.052745
v -0.104920 0.360449 -0.003714
v -0.087619 0.362981 -0.059285
v -0.011149 0.361239 -0.001705
v -0.030399 0.359569 -0.072788
v -0.032880 0.357218 0.067055
v -0.056208 0.361657 -0.003065
v -0.003727 0.982059 -0.001743
v -0.030366 1.006846 -0.103251
v -0.033089 1.005841 0.098887
v -0.066083 0.982323 -0.003001
v -0.014691 1.141557 -0.001891
v -0.030933 1.166100 -0.063905
v -0.032471 1.165446 0.059535
v -0.053684 1.141684 -0.002843
v -0.023231 1.214442 -0.001875
v -0.043003 1.214581 -0.002902
v -0.007741 0.252839 -0.026744
v -0.031815 0.253165 -0.037193
v 0.001891 0.252517 -0.002331
v -0.008561 0.252389 0.021744
v -0.032974 0.252529 0.031379
v -0.057048 0.252856 0.020929
v -0.066681 0.253177 -0.003484
v -0.056229 0.253306 -0.027559
v 0.060700 0.318860 -0.076131
v -0.030160 0.326193 -0.123850
v 0.069251 0.316428 -0.000364
v 0.058711 0.316861 0.074343
v -0.033329 0.323775 0.119491
v -0.124732 0.319267 0.071047
v -0.132428 0.317770 -0.004577
v -0.122491 0.319721 -0.079290
vt 0.000000 0.000000
vt 0.000000 0.000000
vt 0.000000 0.000000
vt 0.000000 0.000000
vt 0.000000 0.000000
vt 0.000000 0.000000
vt 0.000000 0.000000
vt 0.000000 0.000000
vt 0.000000 0.000000
vt 0.000000 0.000000
vt 0.000000 0.000000
vt 0.000000 0.000000
vt 0.000000 0.000000
vt 0.000000 0.000000
vt 0.000000 0.000000
vt 0.000000 0.000000
vt 0.000000 0.000000
vt 0.000000 0.000000
vt 0.000000 0.000000
vt 0.000000 0.000000
vt 0.000000 0.000000
vt 0.000000 0.000000
vt 0.000000 0.000000
vt 0.000000 0.000000
vt 0.000000 0.000000
vt 0.000000 0.000000
vt 0.000000 0.000000
vt 0.000000 0.000000
vt 0.000000 0.000000
vt 0.000000 0.000000
vt 0.000000 0.000000
vt 0.000000 0.000000
vt 0.000000 0.000000
vt 0.000000 0.000000
vt 0.000000 0.000000
vt 0.000000 0.000000
vt 0.000000 0.000000
vt 0.000000 0.000000
vt 0.000000 0.000000
vt 0.000000 0.000000
vt 0.000000 0.000000
vt 0.000000 0.000000
vt 0.000000 0.000000
vt 0.000000 0.000000
vt 0.000000 0.000000
vt 0.000000 0.000000
vt 0.000000 0.000000
vt 0.000000 0.000000
vt 0.000000 0.000000
vt 0.000000 0.000000
vt 0.000000 0.000000
vt 0.000000 0.000000
vt 0.000000 0.000000
vt 0.000000 0.000000
vt 0.000000 0.000000
vt 0.000000 0.000000
vt 0.000000 0.000000
vt 0.000000 0.000000
vt 0.000000 0.000000
vt 0.000000 0.000000
vt 0.000000 0.000000
vt 0.000000 0.000000
vt 0.000000 0.000000
vt 0.000000 0.000000
vt 0.000000 0.000000
vt 0.000000 0.000000
vt 0.000000 0.000000
vt 0.000000 0.000000
vt 0.000000 0.000000
vt 0.000000 0.000000
vt 0.000000 0.000000
vt 0.000000 0.000000
vt 0.000000 0.000000
vt 0.000000 0.000000
vn -0.3670 -0.0418 -0.9293
vn -0.9293 -0.0487 0.3660
vn 0.3660 -0.0662 0.9283
vn 0.9283 -0.0593 -0.3671
vn -0.9164 -0.0416 -0.3981
vn -0.3982 -0.0589 0.9154
vn 0.9154 -0.0664 0.3971
vn 0.3971 -0.0491 -0.9164
vn 0.0095 0.9999 0.0094
vn 0.3670 -0.0138 0.9301
vn -0.3670 0.0138 -0.9301
vn -0.9302 0.0060 0.3671
vn 0.9302 -0.0060 -0.3671
vn -0.0288 0.9995 -0.0157
vn 0.0259 0.9995 0.0207
vn 0.0692 0.9968 0.0401
vn -0.0246 0.9996 -0.0151
vn -0.0009 -0.8910 -0.4540
vn 0.3119 -0.8952 -0.3182
vn 0.4371 -0.8994 -0.0010
vn 0.3013 -0.9011 0.3119
vn -0.0160 -0.8993 0.4371
vn -0.3289 -0.8950 0.3013
vn -0.4540 -0.8908 -0.0159
vn -0.3182 -0.8892 -0.3288
vn -0.0095 -0.9999 -0.0094
vn 0.2057 -0.8412 -0.5002
vn 0.4911 -0.8466 -0.2049
vn 0.4842 -0.8504 0.2057
vn 0.1889 -0.8503 0.4911
vn -0.2217 -0.8464 0.4842
vn -0.5071 -0.8409 0.1890
vn -0.5002 -0.8371 -0.2216
vn -0.2049 -0.8372 -0.5071
vn -0.9172 0.0140 -0.3981
vn 0.9172 -0.0140 0.3981
vn -0.3982 -0.0055 0.9173
vn 0.3982 0.0055 -0.9173
vn -0.2754 -0.7420 0.6113
vn 0.6562 -0.7003 0.2811
vn 0.4813 0.5421 -0.6888
vn 0.7566 0.6507 -0.0645
vn 0.8180 0.5236 0.2384
vn 0.3878 0.6016 0.6984
vn -0.5071 0.4959 0.7050
vn -0.7501 0.6583 0.0633
vn -0.8159 0.5305 -0.2298
vn -0.3756 0.6209 -0.6880
vn -0.0423 0.9114 -0.4093
vn 0.0039 0.9331 0.3595
vn 0.9664 -0.0121 -0.2566
vn 0.9536 -0.0114 0.3007
vn -0.9502 -0.0156 0.3113
vn -0.9379 -0.0149 -0.3467
vn 0.9620 0.0664 0.2650
vn -0.9439 0.0760 -0.3213
vn 0.9690 0.0664 -0.2381
vn -0.9536 0.0739 0.2918
vn 0.9712 0.1138 -0.2093
vn -0.9449 0.1382 -0.2968
vn 0.9651 0.1138 0.2360
vn -0.9525 0.1398 0.2707
vn 0.9513 0.1988 0.2356
vn 0.2607 -0.7369 -0.6237
vn -0.6675 -0.6844 -0.2934
vn 0.6665 -0.6941 -0.2721
vn -0.2513 -0.7383 -0.6260
vn -0.6791 -0.6869 0.2589
vn 0.2386 -0.7511 0.6155
vn -0.9220 0.2513 -0.2946
vn 0.9585 0.1949 -0.2079
vn -0.9310 0.2467 0.2691
vn 0.0840 0.9091 -0.4080
vn 0.0267 0.9994 -0.0238
vn -0.0172 0.9331 0.3593
vn -0.0253 0.9990 0.0376
vn -0.2825 -0.7465 0.6025
vn 0.6486 -0.7550 0.0959
vn 0.4010 0.6280 -0.6669
vn 0.8241 0.5230 -0.2177
vn 0.7653 0.6351 0.1043
vn 0.4816 0.4979 0.7212
vn -0.3906 0.6215 0.6791
vn -0.8220 0.5254 0.2195
vn -0.7565 0.6486 -0.0837
vn -0.4453 0.5477 -0.7083
vn 0.0575 0.9983 -0.0086
vn -0.0697 0.9969 0.0363
vn 0.9652 -0.0116 -0.2611
vn 0.9590 -0.0136 0.2830
vn -0.9490 -0.0151 0.3148
vn -0.9406 -0.0159 -0.3390
vn 0.9648 0.0594 0.2562
vn -0.9450 0.0738 -0.3186
vn 0.9712 0.0604 -0.2305
vn -0.9525 0.0764 0.2948
vn 0.9714 0.1130 -0.2087
vn -0.9441 0.1403 -0.2983
vn 0.9653 0.1131 0.2354
vn -0.9523 0.1404 0.2711
vn 0.2651 -0.7398 -0.6184
vn -0.6608 -0.7428 -0.1073
vn 0.6535 -0.7506 -0.0978
vn -0.2507 -0.7379 -0.6266
vn -0.6662 -0.7412 0.0825
vn 0.2428 -0.7538 0.6105
usemtl None
s off
f 18/1/1 16/2/1 24/3/1
f 23/4/2 14/5/2 22/6/2
f 21/7/3 12/8/3 20/9/3
f 19/10/4 10/11/4 17/12/4
f 24/3/5 15/13/5 23/4/5
f 22/6/6 13/14/6 21/7/6
f 20/9/7 11/15/7 19/10/7
f 17/12/8 9/16/8 18/1/8
f 2/17/9 18/1/9 1/18/9
f 2/17/9 19/10/9 17/12/9
f 4/19/9 19/10/9 3/20/9
f 4/19/9 21/7/9 20/9/9
f 6/21/9 21/7/9 5/22/9
f 6/21/9 23/4/9 22/6/9
f 8/23/9 23/4/9 7/24/9
f 1/18/9 24/3/9 8/23/9
f 4/19/10 63/25/10 5/22/10
f 66/26/11 1/18/11 8/23/11
f 6/21/12 65/27/12 7/24/12
f 59/28/13 3/20/13 2/17/13
f 37/29/14 46/30/14 45/31/14
f 45/31/15 39/32/15 37/29/15
f 42/33/16 47/34/16 48/35/16
f 48/35/17 43/36/17 42/33/17
f 25/37/18 9/16/18 26/38/18
f 28/39/19 26/38/19 10/11/19
f 29/40/20 28/39/20 11/15/20
f 30/41/21 29/40/21 12/8/21
f 31/42/22 30/41/22 13/14/22
f 32/43/23 31/42/23 14/5/23
f 33/44/24 32/43/24 15/13/24
f 25/37/25 33/44/25 16/2/25
f 25/37/26 27/45/26 33/44/26
f 9/16/27 10/11/27 26/38/27
f 27/45/26 28/39/26 29/40/26
f 10/11/28 11/15/28 28/39/28
f 11/15/29 12/8/29 29/40/29
f 12/8/30 13/14/30 30/41/30
f 13/14/31 14/5/31 31/42/31
f 14/5/32 15/13/32 32/43/32
f 27/45/26 32/43/26 33/44/26
f 15/13/33 16/2/33 33/44/33
f 16/2/34 9/16/34 25/37/34
f 7/24/35 66/26/35 8/23/35
f 61/46/36 4/19/36 3/20/36
f 5/22/37 64/47/37 6/21/37
f 60/48/38 2/17/38 1/18/38
f 63/25/39 72/49/39 64/47/39
f 69/50/40 62/51/40 61/46/40
f 37/29/41 68/52/41 38/53/41
f 37/29/42 69/50/42 67/54/42
f 40/55/43 69/50/43 39/32/43
f 40/55/44 71/56/44 70/57/44
f 42/33/45 71/56/45 41/58/45
f 42/33/46 73/59/46 72/49/46
f 44/60/47 73/59/47 43/36/47
f 44/60/48 68/52/48 74/61/48
f 44/60/49 46/30/49 38/53/49
f 40/55/50 47/34/50 41/58/50
f 49/62/51 46/30/51 50/63/51
f 49/62/52 47/34/52 45/31/52
f 52/64/53 47/34/53 51/65/53
f 52/64/54 46/30/54 48/35/54
f 53/66/55 51/65/55 49/62/55
f 50/63/56 56/67/56 54/68/56
f 50/63/57 53/66/57 49/62/57
f 51/65/58 56/67/58 52/64/58
f 54/68/59 57/69/59 53/66/59
f 58/70/60 54/68/60 56/67/60
f 55/71/61 57/69/61 36/72/61
f 55/71/62 58/70/62 56/67/62
f 36/72/63 57/69/63 35/73/63
f 60/48/64 67/54/64 59/28/64
f 73/59/65 66/26/65 65/27/65
f 59/28/66 69/50/66 61/46/66
f 74/61/67 60/48/67 66/26/67
f 64/47/68 73/59/68 65/27/68
f 70/57/69 63/25/69 62/51/69
f 58/70/70 35/73/70 34/74/70
f 57/69/71 34/74/71 35/73/71
f 35/73/72 58/70/72 36/72/72
f 27/45/26 30/41/26 31/42/26
f 18/1/1 9/16/1 16/2/1
f 23/4/2 15/13/2 14/5/2
f 21/7/3 13/14/3 12/8/3
f 19/10/4 11/15/4 10/11/4
f 24/3/5 16/2/5 15/13/5
f 22/6/6 14/5/6 13/14/6
f 20/9/7 12/8/7 11/15/7
f 17/12/8 10/11/8 9/16/8
f 2/17/9 17/12/9 18/1/9
f 2/17/9 3/20/9 19/10/9
f 4/19/9 20/9/9 19/10/9
f 4/19/9 5/22/9 21/7/9
f 6/21/9 22/6/9 21/7/9
f 6/21/9 7/24/9 23/4/9
f 8/23/9 24/3/9 23/4/9
f 1/18/9 18/1/9 24/3/9
f 4/19/10 62/51/10 63/25/10
f 66/26/11 60/48/11 1/18/11
f 6/21/12 64/47/12 65/27/12
f 59/28/13 61/46/13 3/20/13
f 37/29/73 38/53/73 46/30/73
f 45/31/74 40/55/74 39/32/74
f 42/33/75 41/58/75 47/34/75
f 48/35/76 44/60/76 43/36/76
f 25/37/26 26/38/26 27/45/26
f 27/45/26 26/38/26 28/39/26
f 27/45/26 31/42/26 32/43/26
f 7/24/35 65/27/35 66/26/35
f 61/46/36 62/51/36 4/19/36
f 5/22/37 63/25/37 64/47/37
f 60/48/38 59/28/38 2/17/38
f 63/25/77 71/56/77 72/49/77
f 69/50/78 70/57/78 62/51/78
f 37/29/79 67/54/79 68/52/79
f 37/29/80 39/32/80 69/50/80
f 40/55/81 70/57/81 69/50/81
f 40/55/82 41/58/82 71/56/82
f 42/33/83 72/49/83 71/56/83
f 42/33/84 43/36/84 73/59/84
f 44/60/85 74/61/85 73/59/85
f 44/60/86 38/53/86 68/52/86
f 44/60/87 48/35/87 46/30/87
f 40/55/88 45/31/88 47/34/88
f 49/62/89 45/31/89 46/30/89
f 49/62/90 51/65/90 47/34/90
f 52/64/91 48/35/91 47/34/91
f 52/64/92 50/63/92 46/30/92
f 53/66/93 55/71/93 51/65/93
f 50/63/94 52/64/94 56/67/94
f 50/63/95 54/68/95 53/66/95
f 51/65/96 55/71/96 56/67/96
f 54/68/97 34/74/97 57/69/97
f 58/70/98 34/74/98 54/68/98
f 55/71/99 53/66/99 57/69/99
f 55/71/100 36/72/100 58/70/100
f 60/48/101 68/52/101 67/54/101
f 73/59/102 74/61/102 66/26/102
f 59/28/103 67/54/103 69/50/103
f 74/61/104 68/52/104 60/48/104
f 64/47/105 72/49/105 73/59/105
f 70/57/106 71/56/106 63/25/106
f 27/45/26 29/40/26 30/41/26
